<svg xmlns="http://www.w3.org/2000/svg" height="24" viewBox="0 -960 960 960" width="24"><path d="M234.846-267.615q56-39.693 116.231-61.039Q411.308-350 480-350q68.692 0 128.923 21.346 60.231 21.346 116.231 61.039 39.615-46 60.231-98.347Q806-418.308 806-480q0-134-96-230t-230-96q-134 0-230 96t-96 230q0 61.692 20.615 114.038 20.616 52.347 60.231 98.347ZM480.104-436q-60.643 0-102.373-41.627Q336-519.254 336-579.896q0-60.643 41.627-102.373Q419.254-724 479.896-724q60.643 0 102.373 41.627Q624-640.746 624-580.104q0 60.643-41.627 102.373Q540.746-436 480.104-436ZM480-88q-80.308 0-152.036-30.801-71.727-30.802-124.807-84.154-53.08-53.353-84.119-125.045Q88-399.692 88-480.5t31.038-152q31.039-71.192 84.119-124.545 53.08-53.352 124.807-84.154Q399.692-872 480.5-872t152 31.038q71.192 31.039 124.308 84.154 53.115 53.116 84.154 124.227Q872-561.469 872-480q0 80.308-30.801 152.036-30.802 71.727-84.154 124.807-53.353 53.08-124.464 84.119Q561.469-88 480-88Zm0-66q50.308 0 102.846-17.846 52.539-17.846 91.539-49.462-39-29.307-89.231-46Q534.923-284 480-284q-54.923 0-105.538 16.308-50.616 16.307-88.847 46.384 39 31.616 91.539 49.462Q429.692-154 480-154Zm0-348q31.692 0 54.846-23.154Q558-548.308 558-580q0-31.692-23.154-54.846Q511.692-658 480-658q-31.692 0-54.846 23.154Q402-611.692 402-580q0 31.692 23.154 54.846Q448.308-502 480-502Zm0-78Zm0 361Z"/></svg>